<?xml version="1.0" encoding="utf-8" ?>
<svg baseProfile="full" height="200mm" version="1.1" viewBox="0,0,200,200" width="200mm" xmlns="http://www.w3.org/2000/svg" xmlns:ev="http://www.w3.org/2001/xml-events" xmlns:xlink="http://www.w3.org/1999/xlink"><defs /><rect fill="#1a1a1a" height="200" width="200" x="0" y="0" /><text alignment-baseline="middle" fill="#e1ed5e" style="dominant-baseline: central; font-size:9.0px; font-family:Arial;" text-anchor="middle" x="100.0" y="100.0">2023</text><line stroke="#e1ed5e" stroke-width="0.3" x1="100.0" x2="100.0" y1="15.0" y2="10.0" /><path d="M 100.0 14.0 a86.0,86.0 0 0,1 42.46469731375804,11.215312516191453" fill="none" id="id37" stroke="none" /><text fill="#e1ed5e" style="font-size:6.75px; font-family:Arial;" text-anchor="middle"><textPath startOffset="22.20632615414155" xlink:href="#id37">January</textPath></text><path d="M 109.41281617654863 81.2277094730956 l 9.984580527521677 -19.912579076906514 a43.275606698912156,43.275606698912156 0 0,0 0.6630225046956563,0.33962587883891177 l -10.32586351980609 19.7377606727551" fill="#ff2703" stroke="none" /><path d="M 109.73455568895987 81.39251694778311 l 12.452592914934158 -23.802977662717733 a47.863522031128156,47.863522031128156 0 0,0 0.7267390995345963,0.3881988584025284 l -12.860477060997066 23.58510007781345" fill="#ff830c" stroke="none" /><path d="M 110.05341064243156 81.56283822128135 l 10.60713140914926 -19.452641969403594 a43.15663594322845,43.15663594322845 0 0,0 0.649149604340659,0.36125105199621255 l -10.940405102561954 19.267175519847203" fill="#ff2403" stroke="none" /><line stroke="#e1ed5e" stroke-width="0.3" x1="143.23703022742887" x2="145.7803849466894" y1="26.81831364943548" y2="22.513508569990506" /><path d="M 143.74570117128098 25.957352633546492 a86.0,86.0 0 0,1 28.547481713284135,27.462654790039103" fill="none" id="id38" stroke="none" /><text fill="#e1ed5e" style="font-size:6.75px; font-family:Arial;" text-anchor="middle"><textPath startOffset="19.985693538727396" xlink:href="#id38">February</textPath></text><path d="M 110.68208982089419 81.91981866633111 l 11.310926628074224 -19.14453144621536 a43.23623496639679,43.23623496639679 0 0,0 0.6375037361678016,0.3840888679631107 l -11.638792430459663 18.946995968793637" fill="#ff2603" stroke="none" /><path d="M 111.60114157652 82.49532879139004 l 12.132422604919443 -18.306307811366942 a42.96170721844899,42.96170721844899 0 0,0 0.6129107525203763,0.4138400760764032 l -12.44573805184636 18.094755822991868" fill="#ff2003" stroke="none" /><path d="M 112.19680574252982 82.90503203632743 l 12.822872343374526 -17.972459063432087 a43.07793785481836,43.07793785481836 0 0,0 0.599921175593431,0.4358682475195968 l -13.130338835321746 17.749071581095816" fill="#ff2303" stroke="none" /><path d="M 114.16331599549186 84.49514656593476 l 14.97219576696838 -16.390349620587916 a43.19932897115434,43.19932897115434 0 0,0 0.5447067493768829,0.5062455592597144 l -15.252110400140108 16.130199475253562" fill="#ff2503" stroke="none" /><path d="M 114.42810811169701 84.74124197986012 l 15.05921508557471 -15.926198860246664 a42.918571329576274,42.918571329576274 0 0,0 0.5324289043604892,0.5121961841519226 l -15.331127233547617 15.66461958933244" fill="#ff1f03" stroke="none" /><path d="M 114.68862486808459 84.99185889309783 l 15.493390847736885 -15.830412864069805 a43.15055600673816,43.15055600673816 0 0,0 0.5263632215143436,0.5241028505634799 l -15.763589869418551 15.561374162856207" fill="#ff2403" stroke="none" /><path d="M 117.45458315368197 88.32363383020206 l 18.363016319296758 -12.28406892552198 a43.092956291762626,43.092956291762626 0 0,0 0.4071327390790278,0.6200910933890621 l -18.57174569373371 11.966159768155245" fill="#ff2303" stroke="none" /><path d="M 117.65298651832404 88.62581576622439 l 18.19063430213547 -11.720601818109266 a42.63958602406002,42.63958602406002 0 0,0 0.39222815844500136,0.6204107528639999 l -18.389690056826428 11.40574341753106" fill="#ff1902" stroke="none" /><line stroke="#e1ed5e" stroke-width="0.3" x1="172.23445277983987" x2="176.4835382374775" y1="55.19839476539836" y2="52.563006222186495" /><path d="M 173.08426987136738 54.67131705675599 a86.0,86.0 0 0,1 12.851231095245387,41.99856678651699" fill="none" id="id39" stroke="none" /><text fill="#e1ed5e" style="font-size:6.75px; font-family:Arial;" text-anchor="middle"><textPath startOffset="22.20632615414155" xlink:href="#id39">March</textPath></text><path d="M 117.84615892207809 88.93136811851018 l 18.703670186728893 -11.600481707779796 a43.009053916660406,43.009053916660406 0 0,0 0.3847962743617378,0.6325038996828061 l -18.900582259376854 11.276810034889907" fill="#ff2103" stroke="none" /><path d="M 118.21658344932153 89.55222093294921 l 19.14622830542369 -10.980959402122753 a43.07169064014978,43.07169064014978 0 0,0 0.36332480350089374,0.6463142845570662 l -19.33241075021702 10.649761607630895" fill="#ff2203" stroke="none" /><path d="M 118.3937258080291 89.86733742301442 l 19.332771684578677 -10.649960437717702 a43.07210271661944,43.07210271661944 0 0,0 0.35214910409875794,0.6524788077149671 l -19.5132288878959 10.315600646670276" fill="#ff2203" stroke="none" /><path d="M 118.73160827565052 90.50648371742162 l 19.352071982964162 -9.807978459101056 a42.69560166227286,42.69560166227286 0 0,0 0.32660099514161706,0.6584076767426363 l -19.518032991059187 9.47341119385947" fill="#ff1b02" stroke="none" /><path d="M 119.04729006885535 91.15688171328212 l 20.133516317823705 -9.347422425051521 a43.197585123441456,43.197585123441456 0 0,0 0.3073151966771783,0.6771282997051644 l -20.291433831464232 8.999472116504293" fill="#ff2503" stroke="none" /><path d="M 119.196687751892 91.48605970444005 l 20.409443504869127 -9.05181069317197 a43.3266804743443,43.3266804743443 0 0,0 0.29649745218290496,0.6843569988363305 l -20.562231666894714 8.699154549749036" fill="#ff2803" stroke="none" /><path d="M 119.34039704204932 91.81776055985345 l 20.07864334471108 -8.494565397108456 a42.80159535102564,42.80159535102564 0 0,0 0.281223425005433,0.6810048300926356 l -20.22188845660271 8.147685996562519" fill="#ff1d02" stroke="none" /><path d="M 119.47837535516314 92.15188598940014 l 20.580069692967793 -8.292002302629886 a43.1877572267733,43.1877572267733 0 0,0 0.271890479596316,0.6919316140603408 l -20.71975372244581 7.936521683673761" fill="#ff2503" stroke="none" /><path d="M 119.61058180528143 92.48833698450437 l 20.930298290458456 -8.017168951580324 a43.41321896840683,43.41321896840683 0 0,0 0.26129674647527756,0.7001453719846986 l -21.06519962543536 7.6557004425662925" fill="#ff2904" stroke="none" /><path d="M 119.7369772167798 92.82701384747503 l 33.406272855964176 -12.140802006883884 a56.54403099674381,56.54403099674381 0 0,0 0.3245813683453381,0.9176352369093985 l -33.61030730511932 11.56396914354787" fill="#dcff1b" stroke="none" /><path d="M 119.85752413597 93.16781622104841 l 42.0072157342349 -14.453011159557631 a65.42404422518113,65.42404422518113 0 0,0 0.35722371253593654,1.0680534321901023 l -42.2497767405426 13.727784624445215" fill="#4fff2b" stroke="none" /><path d="M 119.97218684219823 93.5106431181261 l 21.047157728952456 -6.8386360958573 a43.13029127957799,43.13029127957799 0 0,0 0.22334203143495543,0.7080552733625989 l -21.161755244155618 6.475330656068282" fill="#ff2403" stroke="none" /><path d="M 120.08093135843002 93.85539295169968 l 25.714981147129603 -7.868581968795486 a47.89191026306767,47.89191026306767 0 0,0 0.2344288548142333,0.7903775576072153 l -25.84661589905554 7.424775024441741" fill="#ff840c" stroke="none" /><path d="M 120.18372546131832 94.20196356495316 l 21.41688035309444 -6.152276141996725 a43.283026405453654,43.283026405453654 0 0,0 0.1995414079034928,0.7178566119446924 l -21.519608531564298 5.782708226633081" fill="#ff2703" stroke="none" /><path d="M 120.37134235888165 94.90015583598534 l 21.576133940996165 -5.401456557084163 a43.24197133299731,43.24197133299731 0 0,0 0.17454765814762396,0.7236127304083738 l -21.665914399404606 5.029258595016383" fill="#ff2603" stroke="none" /><path d="M 120.45610955862082 95.25157060432595 l 21.753642566523563 -5.0496227315293645 a43.332032031206744,43.332032031206744 0 0,0 0.1624035306411176,0.7280231837319029 l -21.83734048416672 4.674421378247498" fill="#ff2803" stroke="none" /><path d="M 120.53481517161879 95.60439243477599 l 24.710589014751204 -5.289458468781502 a46.270369612431615,46.270369612431615 0 0,0 0.1600088961680055,0.780260203718036 l -24.797977206834204 4.863322608900054" fill="#ff6409" stroke="none" /><path d="M 120.6074358757038 95.95851677861258 l 43.466966888022846 -8.524642193338753 a65.29499672614195,65.29499672614195 0 0,0 0.2068118780736876,1.1047973223242107 l -43.60726449000639 7.775166793551979" fill="#51ff2b" stroke="none" /><path d="M 120.78858239683441 97.02765380044208 l 34.69315045768534 -4.960417788241997 a56.04597599316504,56.04597599316504 0 0,0 0.1283292744028494,0.9562021523540566 l -34.773395731146024 4.362497293823276" fill="#e4ff1a" stroke="none" /><path d="M 120.83666639777658 97.38593545837742 l 38.83252210816481 -4.871735102288739 a60.13692088281832,60.13692088281832 0 0,0 0.12001510122142943,1.0282160952780401 l -38.91062756238983 4.202575268685846" fill="#a0ff22" stroke="none" /><path d="M 120.87857604477298 97.74499172005257 l 31.960871237833068 -3.45196095371124 a53.146746720427124,53.146746720427124 0 0,0 0.09040735969010684,0.9103897742281647 l -32.0155557232054 2.9012956487786403" fill="#ffe615" stroke="none" /><path d="M 120.91429891909075 98.10471618934814 l 31.839162171167725 -2.885310611710282 a52.9696303558231,52.9696303558231 0 0,0 0.07447407991172557,0.9087724108500936 l -31.884110734898943 2.33682428365242" fill="#ffe315" stroke="none" /><line stroke="#e1ed5e" stroke-width="0.3" x1="184.98032266829074" x2="189.97916517819016" y1="98.17113171792111" y2="98.06355123074" /><path d="M 185.9800911702706 98.14961562048488 a86.0,86.0 0 0,1 -9.607161424134198,41.387399972396054" fill="none" id="id40" stroke="none" /><text fill="#e1ed5e" style="font-size:6.75px; font-family:Arial;" text-anchor="middle"><textPath startOffset="21.466115282336823" xlink:href="#id40">April</textPath></text><path d="M 120.81339534386255 102.79330883721812 l 44.807925582209165 6.0135490840567885 a66.2096556895444,66.2096556895444 0 0,0 -0.1613180888199819,1.128258337481977 l -44.697773442372586 -6.783952893519175" fill="#43ff2d" stroke="none" /><path d="M 120.76222939487914 103.15116336523771 l 43.37307713118119 6.582898642239136 a64.86978885704131,64.86978885704131 0 0,0 -0.1770582139161547,1.102541667071159 l -43.25333716290375 -7.3285195390035" fill="#57ff2a" stroke="none" /><path d="M 120.5718875245553 104.21870165774334 l 43.18201679519047 8.855387995930077 a65.08065869583365,65.08065869583365 0 0,0 -0.2344947905079374,1.0954815939176248 l -43.023187965958094 -9.597383409263871" fill="#54ff2b" stroke="none" /><path d="M 120.41448212921028 104.9243191809786 l 51.71281603657026 12.47400792729057 a74.19601692046376,74.19601692046376 0 0,0 -0.31017003857090186,1.238975121981257 l -51.4904346837043 -13.362310888669223" fill="#3bff9e" stroke="none" /><path d="M 120.32669344350535 105.2749913415812 l 25.768642719603196 6.687234576936945 a47.622209786145476,47.622209786145476 0 0,0 -0.21273957661398804,0.7916831056456914 l -25.64971506664743 -7.129808615758185" fill="#ff7e0b" stroke="none" /><path d="M 120.23288151984713 105.62410040840565 l 21.418167957720808 5.953572507215904 a43.23022591571699,43.23022591571699 0 0,0 -0.2054616597840915,0.7152389917459027 l -21.312513661050616 -6.321368974466389" fill="#ff2603" stroke="none" /><path d="M 120.13307415673323 105.97154293290107 l 60.399222470199675 17.914628798703227 a84.0,84.0 0 0,0 -0.4230929099754692,1.3826921097917715 l -60.08190278771807 -18.951647881047055" fill="#4dd2ff" stroke="none" /><path d="M 120.02730092923936 106.31721596034902 l 42.31333041584346 13.346903168975357 a65.36843196555799,65.36843196555799 0 0,0 -0.3477219233080995,1.0701780388802613 l -42.077316241519114 -14.073280107833414" fill="#50ff2b" stroke="none" /><path d="M 119.67450827220406 107.3425965602758 l 41.7087755142328 15.565863572650947 a65.51873834307355,65.51873834307355 0 0,0 -0.4034260791226503,1.0532181902593953 l -41.43465515551664 -16.281505329743485" fill="#4dff2c" stroke="none" /><path d="M 119.54520255179757 107.68017299344265 l 41.220629582222415 16.197405232875 a65.28878232050138,65.28878232050138 0 0,0 -0.420016371896091,1.0424461897541455 l -40.93571059606893 -16.904550790471955" fill="#51ff2b" stroke="none" /><path d="M 119.26925614724726 108.34839909993367 l 20.3784063460561 8.82893807095927 a43.20877287618146,43.20877287618146 0 0,0 -0.30155385156314063,0.6799243273830381 l -20.223411409761685 -9.178410734834996" fill="#ff2503" stroke="none" /><path d="M 118.97047184881838 109.00673069616215 l 23.982124568505572 11.38614470065476 a47.54781704704865,47.54781704704865 0 0,0 -0.3573937179026668,0.7363369154020365 l -23.78257759398819 -11.797270572022073" fill="#ff7d0b" stroke="none" /><line stroke="#e1ed5e" stroke-width="0.3" x1="174.80103733775053" x2="179.2010983576182" y1="140.37084112569926" y2="142.7455964860345" /><path d="M 175.68104954172406 140.8457921977663 a86.0,86.0 0 0,1 -30.038265399797805,32.042727171017184" fill="none" id="id41" stroke="none" /><text fill="#e1ed5e" style="font-size:6.75px; font-family:Arial;" text-anchor="middle"><textPath startOffset="22.206326154141568" xlink:href="#id41">May</textPath></text><path d="M 118.12598468904814 110.60418214915192 l 37.95645576746037 22.20553407714009 a64.9747459126054,64.9747459126054 0 0,0 -0.5730745495077602,0.9605059081615064 l -37.56860034225438 -22.8556020791877" fill="#55ff2b" stroke="none" /><path d="M 117.35343817320211 111.8261652097733 l 16.89067985848621 11.51080082910102 a41.44000004425402,41.44000004425402 0 0,0 -0.4067811436344552,0.5859985765767394 l -16.690037807689617 -11.79984066786478" fill="#ff0000" stroke="none" /><path d="M 117.14729908036423 112.12312394758627 l 19.49995401770192 13.786448724134095 a44.88125572736216,44.88125572736216 0 0,0 -0.45142038824652864,0.626983436931524 l -19.25975383707979 -14.12006576651675" fill="#ff4806" stroke="none" /><path d="M 116.93607887273984 112.41649034213515 l 35.6949947119925 26.169372523258676 a65.26023842852926,65.26023842852926 0 0,0 -0.6719900615695926,0.9002405025188661 l -35.23924338372781 -26.77992590528686" fill="#51ff2b" stroke="none" /><line stroke="#e1ed5e" stroke-width="0.3" x1="143.8653032363475" x2="146.44561519142675" y1="172.8068346515853" y2="177.08958963109032" /><path d="M 144.38136562736335 173.6633856474863 a86.0,86.0 0 0,1 -40.68145358897372,12.25698825130547" fill="none" id="id42" stroke="none" /><text fill="#e1ed5e" style="font-size:6.75px; font-family:Arial;" text-anchor="middle"><textPath startOffset="21.466115282336833" xlink:href="#id42">June</textPath></text><line stroke="#e1ed5e" stroke-width="0.3" x1="102.19456741930631" x2="102.32365962044197" y1="184.97166512339345" y2="189.96999836594603" /><path d="M 102.22038585953345 185.97133177190398 a86.0,86.0 0 0,1 -42.740103519485714,-10.115201625700543" fill="none" id="id43" stroke="none" /><text fill="#e1ed5e" style="font-size:6.75px; font-family:Arial;" text-anchor="middle"><textPath startOffset="22.20632615414155" xlink:href="#id43">July</textPath></text><line stroke="#e1ed5e" stroke-width="0.3" x1="58.666819895761336" x2="56.23545636021788" y1="174.27360380694188" y2="178.64263932499728" /><path d="M 58.180547188652646 175.14741091055294 a86.0,86.0 0 0,1 -31.652253787137756,-30.449443065178592" fill="none" id="id44" stroke="none" /><text fill="#e1ed5e" style="font-size:6.75px; font-family:Arial;" text-anchor="middle"><textPath startOffset="22.20632615414155" xlink:href="#id44">August</textPath></text><line stroke="#e1ed5e" stroke-width="0.3" x1="26.63291911575756" x2="22.317208475507996" y1="142.92168965132927" y2="145.44649492493687" /><path d="M 25.769776987707644 143.4266507060508 a86.0,86.0 0 0,1 -11.730757126820373,-40.83630448921669" fill="none" id="id45" stroke="none" /><text fill="#e1ed5e" style="font-size:6.75px; font-family:Arial;" text-anchor="middle"><textPath startOffset="21.46611528233685" xlink:href="#id45">September</textPath></text><line stroke="#e1ed5e" stroke-width="0.3" x1="15.007084014347285" x2="10.007500721073583" y1="101.09737516637583" y2="101.16192664675087" /><path d="M 14.007167355692545 101.11028546245083 a86.0,86.0 0 0,1 10.666146001902534,-42.60595125391555" fill="none" id="id46" stroke="none" /><text fill="#e1ed5e" style="font-size:6.75px; font-family:Arial;" text-anchor="middle"><textPath startOffset="22.20632615414155" xlink:href="#id46">October</textPath></text><line stroke="#e1ed5e" stroke-width="0.3" x1="26.266209847984243" x2="21.928928074336255" y1="57.711370442889674" y2="55.22380399835377" /><path d="M 25.398753493254645 57.213857153982495 a86.0,86.0 0 0,1 29.58750427330803,-30.492523968695096" fill="none" id="id47" stroke="none" /><text fill="#e1ed5e" style="font-size:6.75px; font-family:Arial;" text-anchor="middle"><textPath startOffset="21.46611528233685" xlink:href="#id47">November</textPath></text><line stroke="#e1ed5e" stroke-width="0.3" x1="56.762969772571076" x2="54.21961505331055" y1="26.818313649435495" y2="22.513508569990535" /><path d="M 56.25429882871897 25.957352633546506 a86.0,86.0 0 0,1 42.265352541879196,-11.944610805530505" fill="none" id="id48" stroke="none" /><text fill="#e1ed5e" style="font-size:6.75px; font-family:Arial;" text-anchor="middle"><textPath startOffset="22.20632615414155" xlink:href="#id48">December</textPath></text></svg>