<?xml version="1.0" encoding="utf-8" ?>
<svg baseProfile="full" height="200mm" version="1.1" viewBox="0,0,200,200" width="200mm" xmlns="http://www.w3.org/2000/svg" xmlns:ev="http://www.w3.org/2001/xml-events" xmlns:xlink="http://www.w3.org/1999/xlink"><defs /><rect fill="#1a1a1a" height="200" width="200" x="0" y="0" /><text alignment-baseline="middle" fill="#e1ed5e" style="dominant-baseline: central; font-size:9.0px; font-family:Arial;" text-anchor="middle" x="100.0" y="100.0">2022</text><line stroke="#e1ed5e" stroke-width="0.3" x1="100.0" x2="100.0" y1="15.0" y2="10.0" /><path d="M 100.0 14.0 a86.0,86.0 0 0,1 42.46469731375804,11.215312516191453" fill="none" id="id25" stroke="none" /><text fill="#e1ed5e" style="font-size:6.75px; font-family:Arial;" text-anchor="middle"><textPath startOffset="22.20632615414155" xlink:href="#id25">January</textPath></text><line stroke="#e1ed5e" stroke-width="0.3" x1="143.23703022742887" x2="145.7803849466894" y1="26.818313649435467" y2="22.513508569990506" /><path d="M 143.74570117128098 25.957352633546478 a86.0,86.0 0 0,1 28.547481713284135,27.462654790039114" fill="none" id="id26" stroke="none" /><text fill="#e1ed5e" style="font-size:6.75px; font-family:Arial;" text-anchor="middle"><textPath startOffset="19.985693538727396" xlink:href="#id26">February</textPath></text><line stroke="#e1ed5e" stroke-width="0.3" x1="172.23445277983987" x2="176.4835382374775" y1="55.19839476539836" y2="52.563006222186495" /><path d="M 173.08426987136738 54.67131705675599 a86.0,86.0 0 0,1 12.851231095245387,41.99856678651699" fill="none" id="id27" stroke="none" /><text fill="#e1ed5e" style="font-size:6.75px; font-family:Arial;" text-anchor="middle"><textPath startOffset="22.20632615414155" xlink:href="#id27">March</textPath></text><path d="M 117.84615892207809 88.93136811851018 l 3.2263425988966006 -2.0010579703275027 a24.79651413352645,24.79651413352645 0 0,0 0.22185110777438014,0.36466488935995484 l -3.260309504957205 1.9452253077604666" fill="#ff2103" stroke="none" /><path d="M 120.6074358757038 95.95851677861258 l 3.814729930097409 -0.7481361145366944 a24.88739914151545,24.88739914151545 0 0,0 0.07882701607925188,0.42109707190094375 l -3.82704267008652 0.6823609651731872" fill="#ff2303" stroke="none" /><path d="M 120.73433829027371 96.67025291283417 l 3.067565874910844 -0.4926233185587156 a24.106869506578178,24.106869506578178 0 0,0 0.06226931420760566,0.4102769790047274 l -3.0755910825577493 0.43974722716190545" fill="#ff1702" stroke="none" /><line stroke="#e1ed5e" stroke-width="0.3" x1="184.98032266829074" x2="189.97916517819016" y1="98.17113171792111" y2="98.06355123074" /><path d="M 185.9800911702706 98.14961562048488 a86.0,86.0 0 0,1 -9.607161424134198,41.387399972396054" fill="none" id="id28" stroke="none" /><text fill="#e1ed5e" style="font-size:6.75px; font-family:Arial;" text-anchor="middle"><textPath startOffset="21.466115282336823" xlink:href="#id28">April</textPath></text><line stroke="#e1ed5e" stroke-width="0.3" x1="174.80103733775053" x2="179.2010983576182" y1="140.37084112569926" y2="142.7455964860345" /><path d="M 175.68104954172406 140.8457921977663 a86.0,86.0 0 0,1 -30.038265399797805,32.042727171017184" fill="none" id="id29" stroke="none" /><text fill="#e1ed5e" style="font-size:6.75px; font-family:Arial;" text-anchor="middle"><textPath startOffset="22.206326154141568" xlink:href="#id29">May</textPath></text><path d="M 115.07121518719521 114.62390073753431 l 2.78058844706804 2.6980604375157373 a24.874429278804282,24.874429278804282 0 0,0 -0.30081402436882954,0.30472301851324196 l -2.733733797643675 -2.745523950009644" fill="#ff2203" stroke="none" /><path d="M 114.55890576462653 115.13401014063108 l 2.6668553887015953 2.7722012319269873 a24.846715135611714,24.846715135611714 0 0,0 -0.3107781761535591,0.2938601633488932 l -2.6187413781572286 -2.8176960320218045" fill="#ff2203" stroke="none" /><path d="M 114.29624159901734 115.38237550388516 l 2.7436992990437643 2.9521474294711583 a25.030268017006613,25.030268017006613 0 0,0 -0.3181233243192481,0.29059811413441516 l -2.6924764252576523 -2.9989383101921567" fill="#ff2503" stroke="none" /><path d="M 113.48314897796784 116.09983520530334 l 2.493660218924241 2.977606985453031 a24.883874952578157,24.883874952578157 0 0,0 -0.3307539436582439,0.2721879780168953 l -2.442036146721306 -3.020090082327105" fill="#ff2303" stroke="none" /><path d="M 113.20401910651253 116.32954008644616 l 2.402974322222238 2.9717819403998753 a24.821750056524664,24.821750056524664 0 0,0 -0.33455287481628443,0.2657890372739878 l -2.3514639546886027 -3.012704891678989" fill="#ff2203" stroke="none" /><path d="M 112.92097659922987 116.55440617244103 l 2.4083715640705976 3.0856151452327576 a24.914239953696455,24.914239953696455 0 0,0 -0.34034189019690964,0.2609596484802796 l -2.3549009453801943 -3.1266141355404087" fill="#ff2303" stroke="none" /><path d="M 112.34349029814194 116.9893568818739 l 2.3499331597798703 3.2344055154367095 a24.99794508388002,24.99794508388002 0 0,0 -0.3502958141962006,0.2499267624982714 l -2.293910017734785 -3.2743765397792" fill="#ff2403" stroke="none" /><path d="M 112.04921762599082 117.19931262002967 l 2.2227844143533804 3.1728503224083506 a24.87398370170798,24.87398370170798 0 0,0 -0.35278784750268244,0.24265069840368622 l -2.1678396822278145 -3.210641810177131" fill="#ff2203" stroke="none" /><path d="M 111.45004920935366 117.60387380957326 l 2.098679469562794 3.2266139536540064 a24.849089908261316,24.849089908261316 0 0,0 -0.36056999512472354,0.2301328306674633 l -2.04282767239114 -3.2622612131452784" fill="#ff2203" stroke="none" /><line stroke="#e1ed5e" stroke-width="0.3" x1="143.8653032363475" x2="146.44561519142675" y1="172.8068346515853" y2="177.08958963109032" /><path d="M 144.38136562736335 173.6633856474863 a86.0,86.0 0 0,1 -40.68145358897372,12.25698825130547" fill="none" id="id30" stroke="none" /><text fill="#e1ed5e" style="font-size:6.75px; font-family:Arial;" text-anchor="middle"><textPath startOffset="21.466115282336833" xlink:href="#id30">June</textPath></text><path d="M 110.8373102113329 117.98757091392108 l 2.0140548972833807 3.3428917861491265 a24.90273527454457,24.90273527454457 0 0,0 -0.3690729198434816,0.21805478647971718 l -1.956214106411517 -3.3770651449225935" fill="#ff2303" stroke="none" /><path d="M 105.53697534728816 120.25689768951611 l 1.0214192487528866 3.736838963934227 a24.873920846390636,24.873920846390636 0 0,0 -0.41398443145542024,0.10933705099332258 l -0.9569443744859677 -3.7538673642311338" fill="#ff2203" stroke="none" /><path d="M 105.18746579009965 120.34920634021253 l 0.9489027636773146 3.7223220193027347 a24.84136664096262,24.84136664096262 0 0,0 -0.4152609600856911,0.10206104074009939 l -0.884688518848413 -3.738104318356864" fill="#ff2203" stroke="none" /><path d="M 104.48393922423573 120.51570834832081 l 1.3142801002127003 6.013325755672218 a27.155275690466347,27.155275690466347 0 0,0 -0.4575127812631541,0.09587625162714403 l -1.2105758575201682 -6.035057988025904" fill="#ff4306" stroke="none" /><path d="M 103.7750983002368 120.6578951692458 l 0.6899273695854907 3.7753844116844655 a24.837906620971022,24.837906620971022 0 0,0 -0.42124028521619095,0.0732380230730018 l -0.6248381128972498 -3.7867010132784733" fill="#ff2203" stroke="none" /><path d="M 103.41894727170886 120.7198165907248 l 0.6274745632609299 3.8026786706228926 a24.85410033594739,24.85410033594739 0 0,0 -0.4227139658226626,0.06601922790971489 l -0.5619247338297502 -3.8129162058797132" fill="#ff2203" stroke="none" /><path d="M 103.06178313531737 120.77559828337769 l 0.5608851667024102 3.8058622676771363 a24.84697020663734,24.84697020663734 0 0,0 -0.42366617269664136,0.058716271080796974 l -0.4952904028189378 -3.814953104250536" fill="#ff2203" stroke="none" /><path d="M 102.70371172650421 120.8252237178851 l 0.49264918773662114 3.7946092582564903 a24.826455624337413,24.826455624337413 0 0,0 -0.424263528876501,0.051372404894243814 l -0.42725823580873984 -3.802527191876085" fill="#ff2203" stroke="none" /><path d="M 101.98527174616119 120.90594882070398 l 0.3637072220235641 3.8300270902700313 a24.84725752394539,24.84725752394539 0 0,0 -0.42613718979943604,0.03676890982767664 l -0.29772571448258606 -3.8357202523763716" fill="#ff2203" stroke="none" /><path d="M 101.62511606390274 120.93702456842531 l 0.5950555320272735 7.666340005102617 a28.68939920670224,28.68939920670224 0 0,0 -0.4926888440388691,0.03397870729066 l -0.4630039272094743 -7.6754470569095625" fill="#ff5908" stroke="none" /><path d="M 101.26447882468166 120.96189622390904 l 0.2326273673606411 3.8563799078901546 a24.86338989567763,24.86338989567763 0 0,0 -0.42742763866796935,0.022093126666669596 l -0.16621166027919218 -3.8598128413190262" fill="#ff2203" stroke="none" /><line stroke="#e1ed5e" stroke-width="0.3" x1="102.19456741930631" x2="102.32365962044197" y1="184.97166512339345" y2="189.96999836594603" /><path d="M 102.22038585953345 185.97133177190398 a86.0,86.0 0 0,1 -42.740103519485714,-10.115201625700543" fill="none" id="id31" stroke="none" /><text fill="#e1ed5e" style="font-size:6.75px; font-family:Arial;" text-anchor="middle"><textPath startOffset="22.20632615414155" xlink:href="#id31">July</textPath></text><path d="M 96.22490169976321 120.6578951692458 l -0.6830192886733214 3.737582373179863 a24.79947856225096,24.79947856225096 0 0,0 -0.41926752530162237,-0.08035361908917424 l 0.7472544285466388 -3.725271555742221" fill="#ff2103" stroke="none" /><path d="M 95.86986931433489 120.58985236759428 l -0.7522668837714692 3.7502600418055416 a24.8249648162542,24.8249648162542 0 0,0 -0.41825164389075126,-0.08764869856187088 l 0.8167099890916079 -3.7367553625171293" fill="#ff2203" stroke="none" /><path d="M 95.51606077576429 120.51570834832081 l -0.8877120544634525 4.061616515278507 a25.157494607191072,25.157494607191072 0 0,0 -0.42226237813298034,-0.09610554249479039 l 0.9574945819892948 -4.0457342392060305" fill="#ff2703" stroke="none" /><path d="M 95.16358092515715 120.4354850818985 l -0.8776672451939181 3.708437093329023 a24.81087988113833,24.81087988113833 0 0,0 -0.4147513278525892,-0.10193578553649359 l 0.9413718577897179 -3.6927800494784995" fill="#ff2203" stroke="none" /><path d="M 94.46302465271185 120.25689768951611 l -1.012578374601038 3.704494828021182 a24.840390200949034,24.840390200949034 0 0,0 -0.4114855963347479,-0.11628993974272711 l 1.076195139040401 -3.6865160949399334" fill="#ff2203" stroke="none" /><path d="M 93.76903079525671 120.05430185196036 l -1.1316000387461527 3.642041551967569 a24.81378883971683,24.81378883971683 0 0,0 -0.4068027545207212,-0.1302453955899585 l 1.1941241383578143 -3.6220233097179038" fill="#ff2203" stroke="none" /><path d="M 92.06813273071674 119.44442032107085 l -1.460377062407683 3.5800126836050357 a24.8664184950907,24.8664184950907 0 0,0 -0.39493620324728285,-0.1650833649876387 l 1.521784725152427 -3.5543442755974235" fill="#ff2203" stroke="none" /><path d="M 91.07499286063937 119.00905698771935 l -1.630131399187693 3.4719592019115617 a24.83560022400093,24.83560022400093 0 0,0 -0.3854098807434407,-0.18502016407673602 l 1.6896539479313757 -3.4433847613352633" fill="#ff2203" stroke="none" /><path d="M 90.7491055286396 118.85261126421891 l -1.6785589671615384 3.42077404405973 a24.81041405450263,24.81041405450263 0 0,0 -0.3817803976421558,-0.19143261700882178 l 1.7371932724864536 -3.391373586141606" fill="#ff2103" stroke="none" /><line stroke="#e1ed5e" stroke-width="0.3" x1="58.666819895761336" x2="56.23545636021788" y1="174.27360380694188" y2="178.64263932499728" /><path d="M 58.180547188652646 175.14741091055294 a86.0,86.0 0 0,1 -31.652253787137756,-30.449443065178592" fill="none" id="id32" stroke="none" /><text fill="#e1ed5e" style="font-size:6.75px; font-family:Arial;" text-anchor="middle"><textPath startOffset="22.20632615414155" xlink:href="#id32">August</textPath></text><path d="M 89.7882731507175 118.34994917583269 l -1.8600024930507606 3.342329041713616 a24.82501930677968,24.82501930677968 0 0,0 -0.37160835382338236,-0.211008921683204 l 1.9172596137953501 -3.309816954235779" fill="#ff2203" stroke="none" /><path d="M 89.1626897886671 117.98757091392108 l -1.9695973176937664 3.2691019019495213 a24.816587590924183,24.816587590924183 0 0,0 -0.3640011983193527,-0.22359926600793384 l 2.025577715945428 -3.234714169113209" fill="#ff2203" stroke="none" /><path d="M 88.8546689885994 117.79835938074946 l -2.1070994567937276 3.3648990186684333 a24.970190615909544,24.970190615909544 0 0,0 -0.3623272136678466,-0.23125437068160526 l 2.1647084725084977 -3.328130219163026" fill="#ff2403" stroke="none" /><path d="M 85.18274418774928 114.88116024355367 l -2.695433023295873 2.707057990607733 a24.820146875132828,24.820146875132828 0 0,0 -0.3001575707827901,-0.30405803449638197 l 2.7416312191341965 -2.6602594621306865" fill="#ff2203" stroke="none" /><path d="M 83.95833913139862 113.55231037782056 l -2.8949415405186523 2.445703509388263 a24.789743022799115,24.789743022799115 0 0,0 -0.2725738488369367,-0.3283327600397238 l 2.936611389249123 -2.3955094922347757" fill="#ff2103" stroke="none" /><path d="M 83.72743513129214 113.27417163493433 l -2.9695561957451493 2.4223838675675116 a24.832258811920163,24.832258811920163 0 0,0 -0.2673394724091899,-0.333547097153511 l 3.0108135802092 -2.3709089368357437" fill="#ff2203" stroke="none" /><path d="M 83.50135304334701 112.99209946851258 l -3.03591679207606 2.39067682606995 a24.864210974457436,24.864210974457436 0 0,0 -0.26189495060960344,-0.33853452745753077 l 3.0766185599037317 -2.3380643044991665" fill="#ff2203" stroke="none" /><path d="M 82.85270091963577 112.12312394758628 l -51.44189724109269 36.36937184275885 a84.0,84.0 0 0,0 -0.8245563713514645,-1.1878349512519497 l 52.06031451960629 -35.47849562931989" fill="#4dd2ff" stroke="none" /><path d="M 82.44556493220864 111.52570212397912 l -3.1991414838700076 2.1004578987109146 a24.82706540551309,24.82706540551309 0 0,0 -0.23147707919140278,-0.3592575673368037 l 3.2348234264384557 -2.0450787314526626" fill="#ff2203" stroke="none" /><path d="M 82.24976979558568 111.22182372390057 l -3.249100443706401 2.054104764875267 a24.8439563054718,24.8439563054718 0 0,0 -0.22541200793983945,-0.3634359295448578 l 3.283977091314196 -1.997872503965145" fill="#ff2203" stroke="none" /><path d="M 82.05923443525364 110.91462005526583 l -3.2515053102706912 1.9781176528508722 a24.805947481408374,24.805947481408374 0 0,0 -0.21878742238010046,-0.36670030453807195 l 3.2850736083490237 -1.921855254426689" fill="#ff2103" stroke="none" /><line stroke="#e1ed5e" stroke-width="0.3" x1="26.63291911575756" x2="22.317208475507996" y1="142.92168965132927" y2="145.44649492493687" /><path d="M 25.769776987707644 143.4266507060508 a86.0,86.0 0 0,1 -11.730757126820373,-40.83630448921669" fill="none" id="id33" stroke="none" /><text fill="#e1ed5e" style="font-size:6.75px; font-family:Arial;" text-anchor="middle"><textPath startOffset="21.46611528233685" xlink:href="#id33">September</textPath></text><path d="M 81.18737489456691 109.33194174019688 l -3.41700463029794 1.6949940774992804 a24.814305384501246,24.814305384501246 0 0,0 -0.18651701401482695,-0.3842802933852336 l 3.445674900927486 -1.6359248281487622" fill="#ff2203" stroke="none" /><path d="M 81.02952815118164 109.00673069616217 l -3.484453304598747 1.6543358957003513 a24.857232438903807,24.857232438903807 0 0,0 -0.1801857967768391,-0.3881041761763031 l 3.512413718215413 -1.5941116522452223" fill="#ff2203" stroke="none" /><path d="M 80.0844068197444 106.66101706037122 l -3.63006639831108 1.2141207138837575 a24.827724018790903,24.827724018790903 0 0,0 -0.13206900773947294,-0.4064666108908474 l 3.6504276570668024 -1.1514552030151055" fill="#ff2203" stroke="none" /><path d="M 79.97269907076064 106.31721596034903 l -3.6628040446115646 1.1553590896748944 a24.840701510833306,24.840701510833306 0 0,0 -0.12511815104822296,-0.4088933569133652 l 3.682148968165918 -1.0921387602094814" fill="#ff2203" stroke="none" /><path d="M 79.86692584326677 105.97154293290107 l -3.6886588392128683 1.0940696116106081 a24.84749169552749,24.84749169552749 0 0,0 -0.118093458386906,-0.411098821051079 l 3.7069449344858785 -1.030413315054933" fill="#ff2203" stroke="none" /><path d="M 79.67330655649465 105.27499134158121 l -3.69995211894733 0.9601765996007695 a24.822510272703493,24.822510272703493 0 0,0 -0.10376835965419,-0.41450301470997 l 3.7159317928965807 -0.8963457454934076" fill="#ff2203" stroke="none" /><path d="M 79.4281124754447 104.21870165774334 l -3.7463898704838328 0.7682766658284395 a24.824354337260125,24.824354337260125 0 0,0 -0.08223961881328534,-0.41933804454972007 l 3.7590594222727844 -0.7036748942107651" fill="#ff2203" stroke="none" /><path d="M 79.29508885075956 103.50808413554451 l -3.7593442091735687 0.6369549564928572 a24.812922828965682,24.812922828965682 0 0,0 -0.06772539074880911,-0.4217260728417743 l 3.7697513542836685 -0.5721496539578687" fill="#ff2203" stroke="none" /><path d="M 79.10278846688536 102.07522291339032 l -3.8289819704734054 0.3802416943281278 a24.847815831912428,24.847815831912428 0 0,0 -0.03860333443566772,-0.42598457873362255 l 3.8349599011861484 -0.31427572704593937" fill="#ff2203" stroke="none" /><path d="M 79.07016306316243 101.71520430193888 l -3.7985516071874534 0.31129206010762195 a24.811285486440557,24.811285486440557 0 0,0 -0.03121902602444714,-0.42595880647189766 l 3.803347191876236 -0.24586011713896336" fill="#ff2203" stroke="none" /><path d="M 79.0235259727143 100.99374915477108 l -3.835818760994485 0.18171984703601576 a24.84012078846539,24.84012078846539 0 0,0 -0.016557557655098202,-0.42727699122449114 l 3.838378451500784 -0.11566560879752769" fill="#ff2203" stroke="none" /><line stroke="#e1ed5e" stroke-width="0.3" x1="15.007084014347285" x2="10.007500721073583" y1="101.09737516637583" y2="101.16192664675087" /><path d="M 14.007167355692545 101.11028546245083 a86.0,86.0 0 0,1 10.666146001902526,-42.60595125391555" fill="none" id="id34" stroke="none" /><text fill="#e1ed5e" style="font-size:6.75px; font-family:Arial;" text-anchor="middle"><textPath startOffset="22.20632615414155" xlink:href="#id34">October</textPath></text><path d="M 79.00486145842228 99.54816195383935 l -1.5142937354835808 -0.03258923590331281 a22.51464437265702,22.51464437265702 0 0,0 0.011673634626284814,-0.3873911015214686 l 1.513508406401651 0.05865048484977581" fill="#ff0000" stroke="none" /><path d="M 79.12142395522702 97.74499172005258 l -4.554459965041718 -0.4919083039874906 a25.58094742959354,25.58094742959354 0 0,0 0.05105183221942928,-0.43738092162752823 l 4.5453177798187 0.5702329639398805" fill="#ff2d04" stroke="none" /><path d="M 79.16333360222342 97.38593545837743 l -3.793992353286985 -0.47597541240920105 a24.82373254425806,24.82373254425806 0 0,0 0.05683925614505642,-0.4235184786714397 l 3.7852370980840946 0.5412122331453008" fill="#ff2203" stroke="none" /><path d="M 79.21141760316559 97.0276538004421 l -4.15784081358133 -0.5944870171857943 a25.200125598679772,25.200125598679772 0 0,0 0.06509325230084541,-0.42888320270471086 l 4.146991667841182 0.6659693322825967" fill="#ff2703" stroke="none" /><path d="M 79.26566170972629 96.67025291283419 l -4.103425423497099 -0.6589729877080746 a25.156001155525736,25.156001155525736 0 0,0 0.07233924197034847,-0.4269503009987053 l 4.091474320006528 0.7295090770226084" fill="#ff2603" stroke="none" /><path d="M 79.3925641242962 95.95851677861259 l -3.947606480176039 -0.774195559821282 a25.02280694132528,25.02280694132528 0 0,0 0.08653208848867633,-0.42196119471650817 l 3.933695095772368 0.8420324107011926" fill="#ff2503" stroke="none" /><path d="M 79.71946130924805 94.55025226153421 l -3.7099620700424585 -0.9969339428950884 a24.841574657305266,24.841574657305266 0 0,0 0.11452347937097965,-0.412001888495899 l 3.6922518201051178 1.06064713480993" fill="#ff2203" stroke="none" /><path d="M 79.91906864156998 93.8553929516997 l -4.982102090431582 -1.5244840527461965 a26.210124074008238,26.210124074008238 0 0,0 0.13572415537158952,-0.43028266249796987 l 4.955122451291788 1.6100168816705809" fill="#ff3605" stroke="none" /><path d="M 80.14247586403 93.16781622104843 l -3.33541728969058 -1.1475843487144493 a24.527316024087042,24.527316024087042 0 0,0 0.1407948753670421,-0.3980460723044515 l 3.3151693335137282 1.2048280474455118" fill="#ff1d03" stroke="none" /><path d="M 80.52162464483688 92.15188598940014 l -3.5954462027806997 -1.4486563280505658 a24.876317653894105,24.876317653894105 0 0,0 0.16344725458891904,-0.39580049150701163 l 3.5699772613055787 1.5103313900108888" fill="#ff2203" stroke="none" /><path d="M 80.803312248108 91.48605970444005 l -3.3687887922322846 -1.4940945550666849 a24.685248494491216,24.685248494491216 0 0,0 0.17561518715528093,-0.3869447862214706 l 3.342571288113652 1.5518613501302274" fill="#ff2003" stroke="none" /><path d="M 81.6062741919709 89.86733742301443 l -3.367239556360118 -1.854931545493747 a24.844356027787242,24.844356027787242 0 0,0 0.20957084892061467,-0.37280315568604117 l 3.334811066147075 1.912618211114574" fill="#ff2203" stroke="none" /><line stroke="#e1ed5e" stroke-width="0.3" x1="26.266209847984243" x2="21.928928074336255" y1="57.71137044288968" y2="55.22380399835378" /><path d="M 25.398753493254645 57.2138571539825 a86.0,86.0 0 0,1 29.58750427330803,-30.4925239686951" fill="none" id="id35" stroke="none" /><text fill="#e1ed5e" style="font-size:6.75px; font-family:Arial;" text-anchor="middle"><textPath startOffset="21.46611528233685" xlink:href="#id35">November</textPath></text><path d="M 81.78341655067845 89.55222093294921 l -3.297077240653785 -1.89097668468865 a24.800856634085697,24.800856634085697 0 0,0 0.21557887825718114,-0.3684941838616347 l 3.2640386879262793 1.9474502809041754" fill="#ff2103" stroke="none" /><path d="M 81.96595687620814 89.24020034530311 l -3.286774796831731 -1.9610155127864974 a24.827332021980528,24.827332021980528 0 0,0 0.22212683131585023,-0.3651181063655025 l 3.252532167229664 2.0173013923590744" fill="#ff2203" stroke="none" /><path d="M 83.17141714833178 87.43820079747577 l -3.075839076219582 -2.295979001637552 a24.83826856782585,24.83826856782585 0 0,0 0.25870128280756094,-0.34042056355124045 l 3.035861853187912 2.348584341069819" fill="#ff2203" stroke="none" /><path d="M 83.6137871275137 86.86637796730984 l -2.9442328710208123 -2.359815657535904 a24.773226356362823,24.773226356362823 0 0,0 0.26955807516960767,-0.3304463272523579 l 2.903176303774812 2.4101461543963443" fill="#ff2103" stroke="none" /><path d="M 84.5562425177563 85.77008943001954 l -2.815224562690407 -2.5939538229317485 a24.828065539391616,24.828065539391616 0 0,0 0.2923004349331794,-0.31180572392827055 l 2.7701568057867694 2.642028963738072" fill="#ff2203" stroke="none" /><path d="M 86.37877921826538 84.01681056812373 l -2.3321995436234637 -2.7366113284540865 a24.595580102612196,24.595580102612196 0 0,0 0.3245942690265448,-0.271838365478289 l 2.2847477376378085 2.7763508513261876" fill="#ff1e03" stroke="none" /><path d="M 86.65592168130627 83.78471172551755 l -1.5262004590355789 -1.854588965746714 a23.401830150745443,23.401830150745443 0 0,0 0.3132464248926356,-0.25329015743451094 l 1.4940506355784429 1.8805852204453617" fill="#ff0d01" stroke="none" /><path d="M 86.93701828274178 83.55741782278169 l -2.3732963048967646 -2.9873056832497906 a24.815302163133758,24.815302163133758 0 0,0 0.3367406309702383,-0.26283140376365144 l 2.3215231187671006 3.027715476236664" fill="#ff2203" stroke="none" /><path d="M 87.80319425747018 82.90503203632743 l -2.2385487841196214 -3.1375362170608523 a24.854248846695288,24.854248846695288 0 0,0 0.35040805393072383,-0.24548323488197152 l 2.1842095906052372 3.1756042947067664" fill="#ff2203" stroke="none" /><line stroke="#e1ed5e" stroke-width="0.3" x1="56.76296977257108" x2="54.21961505331056" y1="26.818313649435495" y2="22.513508569990535" /><path d="M 56.25429882871898 25.957352633546506 a86.0,86.0 0 0,1 42.26535254187918,-11.944610805530505" fill="none" id="id36" stroke="none" /><text fill="#e1ed5e" style="font-size:6.75px; font-family:Arial;" text-anchor="middle"><textPath startOffset="22.20632615414155" xlink:href="#id36">December</textPath></text><path d="M 90.91171255644093 81.06846463323043 l -1.6562600297297916 -3.4501049316632537 a24.827064322110047,24.827064322110047 0 0,0 0.38685506646002493,-0.18163364086309644 l 1.5966267519701582 3.4781035551663577" fill="#ff2203" stroke="none" /><path d="M 91.23893434514133 80.91482961587045 l -1.5679200866382308 -3.4155687425529875 a24.758255344330482,24.758255344330482 0 0,0 0.3888435870536067,-0.1744627829924479 l 1.5088943811178497 3.442051856061964" fill="#ff2103" stroke="none" /><path d="M 92.23578459929587 80.48803036053334 l -1.119112556258514 -2.812401394593166 a24.026881979510442,24.026881979510442 0 0,0 0.3855935104600425,-0.14960429150388665 l 1.070535880798794 2.8312483899876044" fill="#ff1602" stroke="none" /><path d="M 96.40284397218896 79.31037775812273 l -0.5221355172741458 -3.0031465212931137 a24.048198570755204,24.048198570755204 0 0,0 0.40844238453147497,-0.06739649311708878 l 0.4703639266037852 3.0116892773498294" fill="#ff1602" stroke="none" /></svg>